# Blender v2.79 (sub 0) OBJ File: 'loopaloop.blend'
# www.blender.org
mtllib halfpipe.mtl
o BezierCircle.001_CUBezierCircle.001
v 44.962307 8.254358 7.053487
v 44.993412 8.021388 7.016421
v 45.064114 7.787152 6.979153
v 45.171238 7.555849 6.942351
v 45.311623 7.331680 6.906686
v 45.482098 7.118843 6.872822
v 45.679504 6.921537 6.841430
v 45.900669 6.743964 6.813177
v 46.142433 6.590320 6.788732
v 46.401623 6.464807 6.768763
v 46.675079 6.371623 6.753937
v 46.959633 6.314968 6.744923
v 47.252113 6.299041 6.742389
v 47.530441 6.322982 6.746199
v 47.798630 6.381731 6.755545
v 48.054150 6.472427 6.769974
v 48.294456 6.592211 6.789034
v 48.517014 6.738221 6.812264
v 48.719288 6.907598 6.839211
v 48.898739 7.097480 6.869423
v 49.052830 7.305007 6.902442
v 49.179020 7.527319 6.937812
v 49.274780 7.761555 6.975080
v 49.337563 8.004855 7.013790
v 49.364838 8.254358 7.053487
v 49.305187 8.862391 7.152335
v 49.206608 9.143270 7.197576
v 49.208656 9.029192 7.179426
v 49.203815 8.753659 7.135033
v 49.156258 8.274120 7.056837
v 49.007805 7.912300 6.999062
v 48.785995 7.559549 6.942939
v 48.495621 7.228646 6.890291
v 48.128052 6.952199 6.846307
v 47.674671 6.762812 6.816175
v 47.126854 6.693092 6.805082
v 46.615875 6.763326 6.816257
v 46.188908 6.950907 6.846102
v 45.838779 7.223898 6.889535
v 45.558319 7.550358 6.941476
v 45.340363 7.898351 6.996842
v 45.177731 8.235937 7.050555
v 45.063259 8.531178 7.097528
v 44.989777 8.752137 7.132684
v 44.950108 8.866872 7.150938
v 44.937088 8.843446 7.147211
v 44.943542 8.649920 7.116423
v 44.962303 4.365125 24.855919
v 44.993412 4.132154 24.818851
v 45.064110 3.897920 24.781586
v 45.171234 3.666616 24.744781
v 45.311619 3.442448 24.709118
v 45.482098 3.229609 24.675255
v 45.679501 3.032305 24.643860
v 45.900669 2.854731 24.615608
v 46.142429 2.701088 24.591167
v 46.401623 2.575574 24.571194
v 46.675076 2.482391 24.556370
v 46.959629 2.425735 24.547356
v 47.252113 2.409810 24.544823
v 47.530437 2.433750 24.548630
v 47.798630 2.492498 24.557976
v 48.054146 2.583196 24.572407
v 48.294453 2.702978 24.591465
v 48.517014 2.848989 24.614697
v 48.719284 3.018365 24.641644
v 48.898735 3.208247 24.671856
v 49.052826 3.415775 24.704872
v 49.179020 3.638086 24.740242
v 49.274776 3.872323 24.777512
v 49.337563 4.115622 24.816219
v 49.364834 4.365125 24.855919
v 49.305183 4.973160 24.954769
v 49.218258 5.254037 25.000011
v 49.223324 5.087083 24.972889
v 49.203812 4.864427 24.937466
v 49.156258 4.384888 24.859268
v 49.007801 4.023067 24.801498
v 48.785995 3.670316 24.745373
v 48.495617 3.339415 24.692726
v 48.128052 3.062966 24.648739
v 47.674667 2.873579 24.618607
v 47.126850 2.803859 24.607513
v 46.615871 2.874093 24.618690
v 46.188904 3.061674 24.648533
v 45.838776 3.334664 24.691967
v 45.558319 3.661125 24.743908
v 45.340359 4.009118 24.799278
v 45.177731 4.346704 24.852985
v 45.063255 4.641946 24.899960
v 44.989773 4.862904 24.935120
v 44.950104 4.977638 24.953369
v 44.943542 4.760688 24.918854
v 27.321941 11.570774 7.150938
v 27.315376 11.353823 7.116424
v 27.321938 7.681540 24.953369
v 27.315372 7.464591 24.918854
v 67.350067 11.344210 7.152336
v 67.263145 11.625088 7.197577
v 67.350067 7.454978 24.954769
v 67.263145 7.735855 25.000011
vn 0.3539 -0.4875 -0.7982
vn 0.4237 -0.4432 -0.7900
vn 0.4413 -0.6876 0.5766
vn 0.3699 -0.7357 0.5673
vn 0.6779 0.3466 -0.6482
vn 0.6777 0.3343 -0.6549
vn 0.6657 0.1080 0.7383
vn 0.6646 0.1224 0.7371
vn -0.6278 -0.2196 -0.7467
vn -0.5806 -0.2895 -0.7610
vn -0.5977 -0.5228 0.6078
vn -0.6428 -0.4490 0.6206
vn -0.7210 0.2770 -0.6351
vn -0.6562 0.4338 -0.6175
vn -0.6368 0.2120 0.7413
vn -0.7094 0.0687 0.7014
vn 0.4874 -0.3919 -0.7803
vn 0.5057 -0.6321 0.5871
vn 0.6066 0.7831 -0.1369
vn 0.5010 0.4877 0.7149
vn -0.5294 -0.3497 -0.7730
vn -0.5475 -0.5870 0.5963
vn -0.5943 0.5365 -0.5992
vn -0.5715 0.3072 0.7609
vn 0.5453 -0.3334 -0.7691
vn 0.5633 -0.5694 0.5987
vn -0.7152 -0.1735 0.6770
vn -0.7117 -0.2600 0.6525
vn -0.6818 -0.3624 0.6354
vn -0.4922 -0.6439 0.5857
vn -0.4306 -0.6949 0.5759
vn -0.3614 -0.7403 0.5668
vn -0.2829 -0.7797 0.5585
vn -0.1938 -0.8113 0.5516
vn -0.0937 -0.8322 0.5465
vn 0.0118 -0.8379 0.5456
vn 0.1123 -0.8285 0.5485
vn 0.2051 -0.8075 0.5530
vn 0.2912 -0.7761 0.5593
vn 0.6139 -0.4991 0.6115
vn 0.6570 -0.4205 0.6257
vn 0.6911 -0.3332 0.6414
vn 0.7141 -0.2373 0.6586
vn 0.7292 -0.1142 0.6747
vn 0.3616 -0.4021 0.8412
vn -0.6149 0.4087 0.6744
vn -0.7198 -0.0999 0.6869
vn -0.7044 -0.0599 0.7073
vn -0.4863 0.4039 0.7748
vn -0.3565 0.5002 0.7891
vn -0.1852 0.5698 0.8006
vn 0.0036 0.5925 0.8055
vn 0.1953 0.5680 0.7995
vn 0.3676 0.4939 0.7879
vn 0.4933 0.3967 0.7741
vn 0.5736 0.3031 0.7610
vn 0.6218 0.2251 0.7501
vn 0.6498 0.1648 0.7420
vn -0.3728 -0.4479 0.8126
vn -0.4739 -0.4025 -0.7831
vn -0.5112 0.6399 -0.5738
vn 0.5973 -0.2673 -0.7562
vn -0.1227 -0.7999 0.5874
vn 0.0914 0.5958 0.7979
vn -0.4132 -0.4497 -0.7918
vn -0.3790 0.7455 -0.5483
vn 0.6428 -0.1925 -0.7414
vn -0.4350 -0.2800 -0.8558
vn -0.7119 0.0484 -0.7006
vn -0.3458 -0.4915 -0.7992
vn -0.1986 0.8240 -0.5306
vn 0.6803 -0.1085 -0.7248
vn -0.2701 -0.5278 -0.8052
vn 0.0038 0.8503 -0.5262
vn 0.7078 -0.0150 -0.7063
vn -0.1848 -0.5570 -0.8097
vn 0.2091 0.8217 -0.5301
vn 0.7282 0.1064 -0.6770
vn -0.0893 -0.5764 -0.8122
vn 0.3903 0.7385 -0.5498
vn 0.3211 -0.1295 -0.9381
vn 0.0111 -0.5815 -0.8134
vn 0.5179 0.6323 -0.5761
vn 0.1068 -0.5725 -0.8129
vn 0.5959 0.5326 -0.6010
vn -0.0001 0.1573 -0.9875
vn 0.6657 0.3893 -0.6366
vn 0.6408 0.4511 -0.6212
vn -0.7161 0.1605 -0.6793
vn -0.7114 0.1177 -0.6928
vn -0.6204 0.6258 -0.4726
vn 0.2778 -0.5245 -0.8048
vn 0.1953 -0.5533 -0.8097
vn -0.6701 -0.1368 -0.7295
vn -0.7046 -0.0374 -0.7086
vn 0.6939 -0.5449 0.4706
vn 0.4445 0.5650 0.6951
vn -0.1482 -0.9662 -0.2111
vn 0.1482 0.9662 0.2111
vn 0.4297 0.7779 -0.4584
vn 0.6905 -0.3252 -0.6461
usemtl None
s 1
f 17//1 18//2 65//3 64//4
f 43//5 44//6 91//7 90//8
f 4//9 5//10 52//11 51//12
f 30//13 31//14 78//15 77//16
f 18//2 19//17 66//18 65//3
f 44//6 45//19 92//20 91//7
f 5//10 6//21 53//22 52//11
f 31//14 32//23 79//24 78//15
f 19//17 20//25 67//26 66//18
f 48//27 49//28 50//29 51//12 52//11 53//22 54//30 55//31 56//32 57//33 58//34 59//35 60//36 61//37 62//38 63//39 64//4 65//3 66//18 67//26 68//40 69//41 70//42 71//43 72//44 73//45 74//46 75//47 76//48 77//16 78//15 79//24 80//49 81//50 82//51 83//52 84//53 85//54 86//55 87//56 88//57 89//58 90//8 91//7 92//20 93//59
f 6//21 7//60 54//30 53//22
f 32//23 33//61 80//49 79//24
f 20//25 21//62 68//40 67//26
f 97//63 93//59 92//20 96//64
f 7//60 8//65 55//31 54//30
f 33//61 34//66 81//50 80//49
f 21//62 22//67 69//41 68//40
f 47//68 1//69 48//27 93//59
f 8//65 9//70 56//32 55//31
f 34//66 35//71 82//51 81//50
f 22//67 23//72 70//42 69//41
f 9//70 10//73 57//33 56//32
f 35//71 36//74 83//52 82//51
f 23//72 24//75 71//43 70//42
f 10//73 11//76 58//34 57//33
f 36//74 37//77 84//53 83//52
f 24//75 25//78 72//44 71//43
f 11//76 12//79 59//35 58//34
f 37//77 38//80 85//54 84//53
f 25//78 26//81 73//45 72//44
f 12//79 13//82 60//36 59//35
f 38//80 39//83 86//55 85//54
f 13//82 14//84 61//37 60//36
f 39//83 40//85 87//56 86//55
f 1//69 47//68 46//86 45//19 44//6 43//5 42//87 41//88 40//85 39//83 38//80 37//77 36//74 35//71 34//66 33//61 32//23 31//14 30//13 29//89 28//90 27//91 26//81 25//78 24//75 23//72 22//67 21//62 20//25 19//17 18//2 17//1 16//92 15//93 14//84 13//82 12//79 11//76 10//73 9//70 8//65 7//60 6//21 5//10 4//9 3//94 2//95
f 14//84 15//93 62//38 61//37
f 40//85 41//88 88//57 87//56
f 1//69 2//95 49//28 48//27
f 27//91 28//90 75//47 74//46
f 15//93 16//92 63//39 62//38
f 41//88 42//87 89//58 88//57
f 2//95 3//94 50//29 49//28
f 28//90 29//89 76//48 75//47
f 16//92 17//1 64//4 63//39
f 42//87 43//5 90//8 89//58
f 3//94 4//9 51//12 50//29
f 29//89 30//13 77//16 76//48
f 74//46 73//45 100//96 101//97
f 47//68 93//59 97//63 95//98
f 45//19 94//99 96//64 92//20
f 27//91 74//46 101//97 99//100
f 26//81 98//101 100//96 73//45
f 26//81 27//91 99//100 98//101
f 100//96 98//101 99//100 101//97
