# Blender v2.79 (sub 0) OBJ File: 'ladder.blend'
# www.blender.org
mtllib ladderbase.mtl
o Cylinder
v 0.000000 -0.314638 1.691476
v 0.000000 -0.314638 -0.314638
v 0.061383 -0.308592 1.691476
v 0.061383 -0.308592 -0.314638
v 0.120407 -0.290687 1.691476
v 0.120407 -0.290687 -0.314638
v 0.174803 -0.261612 1.691476
v 0.174803 -0.261612 -0.314638
v 0.222482 -0.222482 1.691476
v 0.222482 -0.222482 -0.314638
v 0.261612 -0.174803 1.691476
v 0.261612 -0.174803 -0.314638
v 0.290687 -0.120407 1.691476
v 0.290687 -0.120407 -0.314638
v 0.308592 -0.061383 1.691476
v 0.308592 -0.061383 -0.314638
v 0.314638 -0.000000 1.691476
v 0.314638 -0.000000 -0.314638
v 0.308592 0.061383 1.691476
v 0.308592 0.061383 -0.314638
v 0.290687 0.120407 1.691476
v 0.290687 0.120407 -0.314638
v 0.261612 0.174803 1.691476
v 0.261612 0.174803 -0.314638
v 0.222482 0.222482 1.691476
v 0.222482 0.222482 -0.314638
v 0.174803 0.261612 1.691476
v 0.174803 0.261612 -0.314638
v 0.120407 0.290687 1.691476
v 0.120407 0.290687 -0.314638
v 0.061383 0.308592 1.691476
v 0.061383 0.308592 -0.314638
v -0.000000 0.314638 1.691476
v -0.000000 0.314638 -0.314638
v -0.061383 0.308592 1.691476
v -0.061383 0.308592 -0.314638
v -0.120407 0.290687 1.691476
v -0.120407 0.290687 -0.314638
v -0.174803 0.261612 1.691476
v -0.174803 0.261612 -0.314638
v -0.222483 0.222482 1.691476
v -0.222483 0.222482 -0.314638
v -0.261612 0.174803 1.691476
v -0.261612 0.174803 -0.314638
v -0.290687 0.120406 1.691476
v -0.290687 0.120406 -0.314638
v -0.308592 0.061383 1.691476
v -0.308592 0.061382 -0.314638
v -0.314638 -0.000000 1.691476
v -0.314638 -0.000000 -0.314638
v -0.308592 -0.061383 1.691476
v -0.308592 -0.061383 -0.314638
v -0.290687 -0.120407 1.691476
v -0.290687 -0.120407 -0.314638
v -0.261611 -0.174804 1.691476
v -0.261611 -0.174804 -0.314638
v -0.222482 -0.222483 1.691476
v -0.222482 -0.222483 -0.314638
v -0.174803 -0.261612 1.691476
v -0.174803 -0.261612 -0.314638
v -0.120406 -0.290687 1.691476
v -0.120406 -0.290687 -0.314638
v -0.061382 -0.308592 1.691476
v -0.061382 -0.308592 -0.314638
vn 0.0980 -0.9952 0.0000
vn 0.2903 -0.9569 0.0000
vn 0.4714 -0.8819 0.0000
vn 0.6344 -0.7730 0.0000
vn 0.7730 -0.6344 0.0000
vn 0.8819 -0.4714 0.0000
vn 0.9569 -0.2903 0.0000
vn 0.9952 -0.0980 0.0000
vn 0.9952 0.0980 -0.0000
vn 0.9569 0.2903 -0.0000
vn 0.8819 0.4714 -0.0000
vn 0.7730 0.6344 -0.0000
vn 0.6344 0.7730 -0.0000
vn 0.4714 0.8819 0.0000
vn 0.2903 0.9569 0.0000
vn 0.0980 0.9952 0.0000
vn -0.0980 0.9952 0.0000
vn -0.2903 0.9569 0.0000
vn -0.4714 0.8819 0.0000
vn -0.6344 0.7730 0.0000
vn -0.7730 0.6344 -0.0000
vn -0.8819 0.4714 -0.0000
vn -0.9569 0.2903 -0.0000
vn -0.9952 0.0980 -0.0000
vn -0.9952 -0.0980 0.0000
vn -0.9569 -0.2903 0.0000
vn -0.8819 -0.4714 0.0000
vn -0.7730 -0.6344 0.0000
vn -0.6344 -0.7730 0.0000
vn -0.4714 -0.8819 0.0000
vn -0.0000 0.0000 -1.0000
vn -0.2903 -0.9569 0.0000
vn -0.0980 -0.9952 0.0000
vn -0.0000 0.0000 1.0000
usemtl None
s off
f 1//1 2//1 4//1 3//1
f 3//2 4//2 6//2 5//2
f 5//3 6//3 8//3 7//3
f 7//4 8//4 10//4 9//4
f 9//5 10//5 12//5 11//5
f 11//6 12//6 14//6 13//6
f 13//7 14//7 16//7 15//7
f 15//8 16//8 18//8 17//8
f 17//9 18//9 20//9 19//9
f 19//10 20//10 22//10 21//10
f 21//11 22//11 24//11 23//11
f 23//12 24//12 26//12 25//12
f 25//13 26//13 28//13 27//13
f 27//14 28//14 30//14 29//14
f 29//15 30//15 32//15 31//15
f 31//16 32//16 34//16 33//16
f 33//17 34//17 36//17 35//17
f 35//18 36//18 38//18 37//18
f 37//19 38//19 40//19 39//19
f 39//20 40//20 42//20 41//20
f 41//21 42//21 44//21 43//21
f 43//22 44//22 46//22 45//22
f 45//23 46//23 48//23 47//23
f 47//24 48//24 50//24 49//24
f 49//25 50//25 52//25 51//25
f 51//26 52//26 54//26 53//26
f 53//27 54//27 56//27 55//27
f 55//28 56//28 58//28 57//28
f 57//29 58//29 60//29 59//29
f 59//30 60//30 62//30 61//30
f 4//31 2//31 64//31 62//31 60//31 58//31 56//31 54//31 52//31 50//31 48//31 46//31 44//31 42//31 40//31 38//31 36//31 34//31 32//31 30//31 28//31 26//31 24//31 22//31 20//31 18//31 16//31 14//31 12//31 10//31 8//31 6//31
f 61//32 62//32 64//32 63//32
f 63//33 64//33 2//33 1//33
f 1//34 3//34 5//34 7//34 9//34 11//34 13//34 15//34 17//34 19//34 21//34 23//34 25//34 27//34 29//34 31//34 33//34 35//34 37//34 39//34 41//34 43//34 45//34 47//34 49//34 51//34 53//34 55//34 57//34 59//34 61//34 63//34
o Cube
v 8.915628 3.989272 -0.489526
v 8.915628 3.989272 0.389254
v -9.010958 3.989272 0.389254
v -9.010958 3.989272 -0.489526
v 8.915628 12.976394 -0.489525
v 8.915628 12.976394 0.389255
v -9.010958 12.976394 0.389254
v -9.010958 12.976394 -0.489526
v 0.040829 3.989272 -0.489526
v 8.915628 11.183931 -0.489525
v -9.010958 11.183931 -0.489526
v 1.164380 11.618681 -6.084558
v 1.164380 13.411143 -6.084558
v 1.164380 12.976394 -0.489525
v 1.164380 11.183931 -0.489526
v -1.099013 11.183931 -0.489526
v -1.099013 12.976394 -0.489526
v -1.099013 11.618681 -6.084558
v -1.099013 13.411143 -6.084558
v 0.898666 12.976394 -0.489526
v 0.899347 14.371082 -0.489525
v 0.899347 14.805832 -6.084558
v -0.815749 12.976394 -0.489526
v -1.089557 14.380198 -0.489526
v -1.089557 14.814947 -6.084558
v 1.164040 14.370437 -0.489525
v 1.164040 14.805186 -6.084558
v -0.811361 14.380198 -0.489526
v -0.811361 14.814947 -6.084558
v 0.898666 13.428648 -5.764183
v -0.815749 13.428648 -5.764183
v -0.811361 14.796344 -5.768515
v 0.899347 14.793557 -5.763451
v 1.167620 12.976394 0.389254
v 1.167620 14.375388 0.389254
v 0.899347 14.371082 0.396715
v 0.897817 12.976394 0.389254
v -1.086136 12.976394 0.389254
v -0.813350 12.976394 0.389254
v -1.089557 14.380198 0.389681
v -0.811361 14.380198 0.389681
v 1.167620 12.982724 2.175915
v 1.167620 14.381719 2.175915
v 0.899347 14.377413 2.183376
v 0.897817 12.982724 2.175915
v -1.086136 12.976394 2.182245
v -0.813350 12.976394 2.182245
v -1.089557 14.380198 2.182673
v -0.811361 14.380198 2.182673
v 0.897817 12.979559 1.878392
v 0.899347 14.374248 1.885853
v -0.811361 14.380198 1.881984
v -0.813350 12.976394 1.881557
v 8.915628 3.289388 -0.115241
v 8.915628 3.289388 0.763539
v -9.010958 3.289388 0.763538
v -9.010958 3.289388 -0.115241
v 0.040829 3.289388 -0.115241
v 8.915628 2.623646 0.729740
v 8.915628 2.623646 1.608521
v -9.010958 2.623646 1.608520
v -9.010958 2.623646 0.729740
v 0.040829 2.623646 0.729740
v 8.915628 1.622242 1.995675
v 8.915628 2.269353 2.590235
v -9.010958 2.269352 2.590235
v -9.010958 1.622242 1.995675
v 0.040829 1.622242 1.995675
v 8.915628 1.212825 3.784923
v 8.915628 1.859936 4.379483
v -9.010958 1.859935 4.379483
v -9.010958 1.212825 3.784923
v 0.040829 1.212825 3.784923
v 8.915628 0.739061 5.862929
v 8.915628 1.548767 6.204439
v -9.010958 1.548767 6.204439
v -9.010958 0.739061 5.862929
v 0.040829 0.739061 5.862929
v 8.915628 -0.958043 31.158218
v 8.915628 -0.148336 31.499727
v -9.010958 -0.148336 31.499727
v -9.010958 -0.958043 31.158218
v 0.040829 -0.958043 31.158218
v 9.034325 13.411143 -6.084558
v -8.996649 13.411143 -6.084558
v 9.034325 11.674481 -6.084558
v -8.996649 11.659153 -6.084558
vn -1.0000 0.0000 0.0000
vn 1.0000 0.0000 0.0000
vn 0.0000 0.0000 -1.0000
vn 0.0000 -0.9970 -0.0775
vn 1.0000 0.0002 0.0000
vn 0.0000 1.0000 -0.0000
vn -0.0000 -0.0000 1.0000
vn -1.0000 0.0067 0.0005
vn 0.0263 0.9967 0.0774
vn -0.0107 0.9969 0.0775
vn -0.0000 0.9963 0.0854
vn -0.0015 0.0013 1.0000
vn 0.0034 0.9988 0.0484
vn 1.0000 0.0001 -0.0039
vn -0.0069 1.0000 -0.0028
vn -1.0000 0.0008 -0.0005
vn 1.0000 -0.0023 -0.0014
vn 1.0000 -0.0032 -0.0003
vn -1.0000 0.0005 0.0000
vn -1.0000 0.0021 0.0073
vn -1.0000 0.0011 -0.0000
vn 0.0039 -1.0000 0.0035
vn -0.0201 0.9998 -0.0035
vn -1.0000 -0.0024 0.0000
vn 1.0000 -0.0014 0.0000
vn 0.0000 -1.0000 0.0000
vn 0.0000 -0.0003 1.0000
vn 0.0139 -0.0027 0.9999
vn 0.0026 1.0000 -0.0053
vn 0.0016 -0.0028 1.0000
vn 0.0028 -1.0000 0.0053
vn 0.0002 0.0028 -1.0000
vn 0.0000 -0.4716 -0.8818
vn 0.0000 -0.7855 -0.6189
vn 0.0000 -0.7843 -0.6204
vn 0.0000 -0.9748 -0.2231
vn 0.0000 -0.9750 -0.2223
vn 0.0000 -0.3886 0.9214
vn 0.0000 -0.9978 -0.0669
vn 0.0000 0.9970 0.0775
vn 0.9998 0.0000 0.0212
vn 0.0036 -0.9966 -0.0824
vn -1.0000 0.0000 -0.0026
vn -0.0026 -0.9967 -0.0811
vn -0.7661 0.1562 0.6234
vn 0.7661 0.1562 0.6234
vn 0.5773 0.5773 0.5773
vn -0.5773 0.5773 0.5773
vn -0.7562 0.4201 0.5016
vn 0.7562 0.4201 0.5016
vn -0.7449 0.5833 0.3238
vn 0.7449 0.5833 0.3238
vn -0.7210 0.6648 0.1952
vn 0.7210 0.6648 0.1952
vn -0.7135 0.6871 0.1371
vn 0.7135 0.6871 0.1371
vn -0.7187 0.6904 0.0818
vn 0.7187 0.6904 0.0818
vn -0.5618 0.4340 0.7042
vn 0.5618 0.4340 0.7042
usemtl Material
s off
f 67//35 68//35 121//35 120//35
f 78//35 77//35 76//35 79//35
f 66//36 65//36 74//36 69//36 70//36
f 68//35 67//35 71//35 72//35
f 65//37 68//37 75//37 80//37 79//37 74//37
f 79//38 80//38 82//38 76//38
f 90//39 78//39 77//39 91//39
f 70//40 69//40 78//40 98//40
f 69//41 78//41 79//41 74//41
f 72//41 75//41 80//41 81//41
f 80//36 82//36 83//36 81//36
f 81//42 88//42 89//42 83//42
f 85//43 90//43 91//43 86//43 97//43
f 88//44 92//44 96//44 93//44 89//44
f 87//45 84//45 94//45 95//45
f 96//46 95//46 94//46 97//46
f 96//47 97//47 86//47 93//47
f 77//37 76//37 82//37 83//37 89//37 93//37 86//37 91//37
f 99//48 98//48 78//48 90//48
f 100//49 99//49 90//49 85//49
f 85//50 84//50 101//50 100//50
f 87//40 103//40 101//40 84//40
f 92//40 88//40 104//40 105//40
f 92//51 105//51 103//51 87//51
f 92//52 87//52 95//52 96//52
f 84//53 85//53 97//53 94//53
f 88//54 81//54 102//54 104//54
f 72//40 71//40 102//40 81//40
f 115//55 114//55 109//55 108//55
f 101//56 98//56 106//56 109//56 114//56
f 98//36 99//36 107//36 106//36
f 99//57 100//57 115//57 108//57 107//57
f 104//58 102//58 110//58 112//58
f 117//59 116//59 113//59 111//59
f 102//60 103//60 117//60 111//60 110//60
f 105//40 104//40 112//40 113//40 116//40
f 111//61 113//61 112//61 110//61
f 107//62 108//62 109//62 106//62
f 100//55 101//55 114//55 115//55
f 103//59 105//59 116//59 117//59
f 116//63 113//63 108//63 115//63
f 111//64 109//64 108//64 113//64
f 117//65 114//65 109//65 111//65
f 114//66 117//66 116//66 115//66
f 118//36 119//36 124//36 123//36
f 68//67 65//67 118//67 121//67
f 73//67 65//67 118//67 122//67
f 68//67 73//67 122//67 121//67
f 65//36 66//36 119//36 118//36
f 123//36 124//36 129//36 128//36
f 121//68 118//68 123//68 126//68
f 120//35 121//35 126//35 125//35
f 121//68 122//68 127//68 126//68
f 122//68 118//68 123//68 127//68
f 128//36 129//36 134//36 133//36
f 126//69 123//69 128//69 131//69
f 125//35 126//35 131//35 130//35
f 126//69 127//69 132//69 131//69
f 127//69 123//69 128//69 132//69
f 133//36 134//36 139//36 138//36
f 131//70 128//70 133//70 136//70
f 130//35 131//35 136//35 135//35
f 131//70 132//70 137//70 136//70
f 132//70 128//70 133//70 137//70
f 138//36 139//36 144//36 143//36
f 136//71 133//71 138//71 141//71
f 135//35 136//35 141//35 140//35
f 136//71 137//71 142//71 141//71
f 137//71 133//71 138//71 142//71
f 143//72 144//72 145//72 146//72 147//72
f 141//73 138//73 143//73 146//73
f 140//35 141//35 146//35 145//35
f 141//73 142//73 147//73 146//73
f 142//73 138//73 143//73 147//73
f 148//74 77//74 78//74 69//74
f 81//74 83//74 149//74 72//74
f 150//75 148//75 69//75 74//75
f 76//37 77//37 148//37 150//37
f 74//76 79//76 76//76 150//76
f 82//37 151//37 149//37 83//37
f 75//77 72//77 149//77 151//77
f 80//78 75//78 151//78 82//78
s 1
f 67//79 66//80 70//81 71//82
f 66//80 67//79 120//83 119//84
f 119//84 120//83 125//85 124//86
f 124//86 125//85 130//87 129//88
f 129//88 130//87 135//89 134//90
f 134//90 135//89 140//91 139//92
f 139//92 140//91 145//93 144//94
