# Blender v2.79 (sub 0) OBJ File: 'este1.blend'
# www.blender.org
mtllib drill_casing.mtl
o Cylinder.007_Cylinder.008
v 0.000000 -1.909285 -2.673964
v -0.000000 0.271162 -2.102227
v 0.521664 -1.909285 -2.622584
v 0.410124 0.271162 -2.061833
v 1.023282 -1.909285 -2.470420
v 0.804488 0.271162 -1.942205
v 1.485575 -1.909285 -2.223319
v 1.167935 0.271162 -1.747938
v 1.890778 -1.909285 -1.890778
v 1.486499 0.271162 -1.486499
v 2.223320 -1.909285 -1.485574
v 1.747938 0.271162 -1.167935
v 2.470420 -1.909285 -1.023282
v 1.942205 0.271162 -0.804488
v 2.622584 -1.909285 -0.521665
v 2.061833 0.271162 -0.410124
v 2.673964 -1.909285 -0.000000
v 2.102227 0.271162 -0.000000
v 2.622584 -1.909285 0.521664
v 2.061834 0.271162 0.410124
v 2.470420 -1.909285 1.023281
v 1.942205 0.271162 0.804487
v 2.223320 -1.909285 1.485574
v 1.747938 0.271162 1.167935
v 1.890778 -1.909285 1.890778
v 1.486499 0.271162 1.486499
v 1.485574 -1.909285 2.223320
v 1.167935 0.271162 1.747938
v 1.023281 -1.909285 2.470420
v 0.804487 0.271162 1.942205
v 0.521664 -1.909285 2.622584
v 0.410124 0.271162 2.061834
v -0.000001 -1.909285 2.673964
v -0.000001 0.271162 2.102227
v -0.521666 -1.909285 2.622584
v -0.410125 0.271162 2.061834
v -1.023283 -1.909285 2.470420
v -0.804489 0.271162 1.942204
v -1.485576 -1.909285 2.223319
v -1.167936 0.271162 1.747938
v -1.890779 -1.909285 1.890777
v -1.486500 0.271162 1.486499
v -2.223320 -1.909285 1.485573
v -1.747939 0.271162 1.167934
v -2.470421 -1.909285 1.023280
v -1.942206 0.271162 0.804486
v -2.622585 -1.909285 0.521662
v -2.061834 0.271162 0.410123
v -2.673964 -1.909285 -0.000003
v -2.102227 0.271162 -0.000002
v -2.622584 -1.909285 -0.521667
v -2.061833 0.271162 -0.410126
v -2.470419 -1.909285 -1.023284
v -1.942204 0.271162 -0.804490
v -2.223318 -1.909285 -1.485577
v -1.747937 0.271162 -1.167937
v -1.890775 -1.909285 -1.890780
v -1.486497 0.271162 -1.486501
v -1.485572 -1.909285 -2.223321
v -1.167933 0.271162 -1.747940
v -1.023278 -1.909285 -2.470422
v -0.804485 0.271162 -1.942206
v -0.521660 -1.909285 -2.622585
v -0.410121 0.271162 -2.061834
v 0.521664 0.627853 -2.622584
v 0.000000 0.627853 -2.673964
v 1.023282 0.627853 -2.470420
v 1.485575 0.627853 -2.223319
v 1.890778 0.627853 -1.890778
v 2.223320 0.627853 -1.485574
v 2.470420 0.627853 -1.023282
v 2.622584 0.627853 -0.521665
v 2.673964 0.627853 -0.000000
v 2.622584 0.627853 0.521664
v 2.470420 0.627853 1.023281
v 2.223320 0.627853 1.485574
v 1.890778 0.627853 1.890778
v 1.485574 0.627853 2.223320
v 1.023281 0.627853 2.470420
v 0.521664 0.627853 2.622584
v -0.000001 0.627853 2.673964
v -0.521666 0.627853 2.622584
v -1.023283 0.627853 2.470420
v -1.485576 0.627853 2.223319
v -1.890779 0.627853 1.890777
v -2.223320 0.627853 1.485573
v -2.470421 0.627853 1.023280
v -2.622585 0.627853 0.521662
v -2.673964 0.627853 -0.000003
v -2.622584 0.627853 -0.521667
v -2.470419 0.627853 -1.023284
v -2.223318 0.627853 -1.485577
v -1.890775 0.627853 -1.890780
v -1.485572 0.627853 -2.223321
v -1.023278 0.627853 -2.470422
v -0.521660 0.627853 -2.622585
v 0.410124 -0.530546 -2.061833
v -0.000000 -0.530546 -2.102227
v 0.804488 -0.530546 -1.942205
v 1.167935 -0.530546 -1.747938
v 1.486499 -0.530546 -1.486499
v 1.747938 -0.530546 -1.167935
v 1.942205 -0.530546 -0.804488
v 2.061833 -0.530546 -0.410124
v 2.102227 -0.530546 -0.000000
v 2.061834 -0.530546 0.410124
v 1.942205 -0.530546 0.804487
v 1.747938 -0.530546 1.167935
v 1.486499 -0.530546 1.486499
v 1.167935 -0.530546 1.747938
v 0.804487 -0.530546 1.942205
v 0.410124 -0.530546 2.061834
v -0.000001 -0.530546 2.102227
v -0.410125 -0.530546 2.061834
v -0.804489 -0.530546 1.942204
v -1.167936 -0.530546 1.747938
v -1.486500 -0.530546 1.486499
v -1.747939 -0.530546 1.167934
v -1.942206 -0.530546 0.804486
v -2.061834 -0.530546 0.410123
v -2.102227 -0.530546 -0.000002
v -2.061833 -0.530546 -0.410126
v -1.942204 -0.530546 -0.804490
v -1.747937 -0.530546 -1.167937
v -1.486497 -0.530546 -1.486501
v -1.167933 -0.530546 -1.747940
v -0.804485 -0.530546 -1.942206
v -0.410121 -0.530546 -2.061834
vn 0.0980 0.0000 -0.9952
vn 0.2903 0.0000 -0.9569
vn 0.4714 0.0000 -0.8819
vn 0.6344 0.0000 -0.7730
vn 0.7730 0.0000 -0.6344
vn 0.8819 0.0000 -0.4714
vn 0.9569 0.0000 -0.2903
vn 0.9952 0.0000 -0.0980
vn 0.9952 0.0000 0.0980
vn 0.9569 0.0000 0.2903
vn 0.8819 0.0000 0.4714
vn 0.7730 0.0000 0.6344
vn 0.6344 0.0000 0.7730
vn 0.4714 0.0000 0.8819
vn 0.2903 0.0000 0.9569
vn 0.0980 0.0000 0.9952
vn -0.0980 0.0000 0.9952
vn -0.2903 0.0000 0.9569
vn -0.4714 0.0000 0.8819
vn -0.6344 0.0000 0.7730
vn -0.7730 0.0000 0.6344
vn -0.8819 0.0000 0.4714
vn -0.9569 0.0000 0.2903
vn -0.9952 0.0000 0.0980
vn -0.9952 0.0000 -0.0980
vn -0.9569 0.0000 -0.2903
vn -0.8819 0.0000 -0.4714
vn -0.7730 0.0000 -0.6344
vn -0.6344 0.0000 -0.7730
vn -0.4714 0.0000 -0.8819
vn -0.2903 0.0000 -0.9569
vn -0.0980 0.0000 -0.9952
vn -0.0521 0.8473 0.5286
vn -0.1542 0.8473 0.5083
vn -0.2504 0.8473 0.4684
vn -0.3370 0.8473 0.4106
vn -0.4106 0.8473 0.3370
vn -0.4684 0.8473 0.2504
vn -0.5083 0.8473 0.1542
vn -0.5286 0.8473 0.0521
vn -0.5286 0.8473 -0.0521
vn -0.5083 0.8473 -0.1542
vn -0.4684 0.8473 -0.2504
vn -0.4106 0.8473 -0.3370
vn -0.3370 0.8473 -0.4106
vn -0.2504 0.8473 -0.4684
vn -0.1542 0.8473 -0.5083
vn -0.0521 0.8473 -0.5286
vn 0.0521 0.8473 -0.5286
vn 0.1542 0.8473 -0.5083
vn 0.2504 0.8473 -0.4684
vn 0.3370 0.8473 -0.4106
vn 0.4106 0.8473 -0.3370
vn 0.4684 0.8473 -0.2504
vn 0.5083 0.8473 -0.1542
vn 0.5286 0.8473 -0.0521
vn 0.5286 0.8473 0.0521
vn 0.5083 0.8473 0.1542
vn 0.4684 0.8473 0.2504
vn 0.4106 0.8473 0.3370
vn 0.3370 0.8473 0.4106
vn 0.2504 0.8473 0.4684
vn 0.1542 0.8473 0.5083
vn 0.0521 0.8473 0.5286
usemtl None
s off
f 1//1 66//1 65//1 3//1
f 3//2 65//2 67//2 5//2
f 5//3 67//3 68//3 7//3
f 7//4 68//4 69//4 9//4
f 9//5 69//5 70//5 11//5
f 11//6 70//6 71//6 13//6
f 13//7 71//7 72//7 15//7
f 15//8 72//8 73//8 17//8
f 17//9 73//9 74//9 19//9
f 19//10 74//10 75//10 21//10
f 21//11 75//11 76//11 23//11
f 23//12 76//12 77//12 25//12
f 25//13 77//13 78//13 27//13
f 27//14 78//14 79//14 29//14
f 29//15 79//15 80//15 31//15
f 31//16 80//16 81//16 33//16
f 33//17 81//17 82//17 35//17
f 35//18 82//18 83//18 37//18
f 37//19 83//19 84//19 39//19
f 39//20 84//20 85//20 41//20
f 41//21 85//21 86//21 43//21
f 43//22 86//22 87//22 45//22
f 45//23 87//23 88//23 47//23
f 47//24 88//24 89//24 49//24
f 49//25 89//25 90//25 51//25
f 51//26 90//26 91//26 53//26
f 53//27 91//27 92//27 55//27
f 55//28 92//28 93//28 57//28
f 57//29 93//29 94//29 59//29
f 59//30 94//30 95//30 61//30
f 40//3 38//3 115//3 116//3
f 61//31 95//31 96//31 63//31
f 63//32 96//32 66//32 1//32
f 2//33 4//33 65//33 66//33
f 4//34 6//34 67//34 65//34
f 6//35 8//35 68//35 67//35
f 8//36 10//36 69//36 68//36
f 10//37 12//37 70//37 69//37
f 12//38 14//38 71//38 70//38
f 14//39 16//39 72//39 71//39
f 16//40 18//40 73//40 72//40
f 18//41 20//41 74//41 73//41
f 20//42 22//42 75//42 74//42
f 22//43 24//43 76//43 75//43
f 24//44 26//44 77//44 76//44
f 26//45 28//45 78//45 77//45
f 28//46 30//46 79//46 78//46
f 30//47 32//47 80//47 79//47
f 32//48 34//48 81//48 80//48
f 34//49 36//49 82//49 81//49
f 36//50 38//50 83//50 82//50
f 38//51 40//51 84//51 83//51
f 40//52 42//52 85//52 84//52
f 42//53 44//53 86//53 85//53
f 44//54 46//54 87//54 86//54
f 46//55 48//55 88//55 87//55
f 48//56 50//56 89//56 88//56
f 50//57 52//57 90//57 89//57
f 52//58 54//58 91//58 90//58
f 54//59 56//59 92//59 91//59
f 56//60 58//60 93//60 92//60
f 58//61 60//61 94//61 93//61
f 60//62 62//62 95//62 94//62
f 62//63 64//63 96//63 95//63
f 64//64 2//64 66//64 96//64
f 14//22 12//22 102//22 103//22
f 42//4 40//4 116//4 117//4
f 16//23 14//23 103//23 104//23
f 44//5 42//5 117//5 118//5
f 18//24 16//24 104//24 105//24
f 46//6 44//6 118//6 119//6
f 20//25 18//25 105//25 106//25
f 48//7 46//7 119//7 120//7
f 22//26 20//26 106//26 107//26
f 50//8 48//8 120//8 121//8
f 24//27 22//27 107//27 108//27
f 52//9 50//9 121//9 122//9
f 26//28 24//28 108//28 109//28
f 54//10 52//10 122//10 123//10
f 28//29 26//29 109//29 110//29
f 56//11 54//11 123//11 124//11
f 30//30 28//30 110//30 111//30
f 4//17 2//17 98//17 97//17
f 58//12 56//12 124//12 125//12
f 32//31 30//31 111//31 112//31
f 6//18 4//18 97//18 99//18
f 60//13 58//13 125//13 126//13
f 34//32 32//32 112//32 113//32
f 8//19 6//19 99//19 100//19
f 62//14 60//14 126//14 127//14
f 36//1 34//1 113//1 114//1
f 10//20 8//20 100//20 101//20
f 64//15 62//15 127//15 128//15
f 38//2 36//2 114//2 115//2
f 12//21 10//21 101//21 102//21
f 2//16 64//16 128//16 98//16
