# Blender v2.79 (sub 0) OBJ File: 'este1.blend'
# www.blender.org
mtllib drill_blade2.mtl
o Cylinder.009_Cylinder.011
v 0.000000 -2.226470 -1.653149
v -0.000000 -0.429762 -1.387304
v 0.632633 -2.226470 -1.527310
v 0.530898 -0.429762 -1.281702
v 1.168953 -2.226470 -1.168953
v 0.980972 -0.429762 -0.980972
v 1.527310 -2.226470 -0.632633
v 1.281702 -0.429762 -0.530898
v 1.653149 -2.226470 0.000000
v 1.387304 -0.429762 0.000000
v 1.527310 -2.226470 0.632633
v 1.281702 -0.429762 0.530898
v 1.168953 -2.226470 1.168953
v 0.980972 -0.429762 0.980972
v 0.632633 -2.226470 1.527310
v 0.530898 -0.429762 1.281702
v 0.000000 -2.226470 1.653149
v 0.000000 -0.429762 1.387304
v -0.632632 -2.226470 1.527311
v -0.530898 -0.429762 1.281702
v -1.168953 -2.226470 1.168953
v -0.980972 -0.429762 0.980973
v -1.527310 -2.226470 0.632633
v -1.281702 -0.429762 0.530899
v -1.653149 -2.226470 -0.000000
v -1.387304 -0.429762 -0.000000
v -1.527310 -2.226470 -0.632633
v -1.281702 -0.429762 -0.530899
v -1.168952 -2.226470 -1.168953
v -0.980972 -0.429762 -0.980973
v -0.632632 -2.226470 -1.527311
v -0.530898 -0.429762 -1.281702
v 0.632633 -0.429762 -1.527310
v 0.000000 -0.429762 -1.653149
v 1.168953 -0.429762 -1.168953
v 1.527310 -0.429762 -0.632633
v 1.653149 -0.429762 0.000000
v 1.527310 -0.429762 0.632633
v 1.168953 -0.429762 1.168953
v 0.632633 -0.429762 1.527310
v 0.000000 -0.429762 1.653149
v -0.632632 -0.429762 1.527311
v -1.168953 -0.429762 1.168953
v -1.527310 -0.429762 0.632633
v -1.653149 -0.429762 -0.000000
v -1.527310 -0.429762 -0.632633
v -1.168952 -0.429762 -1.168953
v -0.632632 -0.429762 -1.527311
v 0.530898 -1.383698 -1.281702
v -0.000000 -1.383698 -1.387304
v 0.980972 -1.383698 -0.980972
v 1.281702 -1.383698 -0.530898
v 1.387304 -1.383698 0.000000
v 1.281702 -1.383698 0.530898
v 0.980972 -1.383698 0.980972
v 0.530898 -1.383698 1.281702
v 0.000000 -1.383698 1.387304
v -0.530898 -1.383698 1.281702
v -0.980972 -1.383698 0.980973
v -1.281702 -1.383698 0.530899
v -1.387304 -1.383698 -0.000000
v -1.281702 -1.383698 -0.530899
v -0.980972 -1.383698 -0.980973
v -0.530898 -1.383698 -1.281702
v 0.632633 -0.119160 -1.527310
v 0.000000 -0.084272 -1.653149
v 1.653149 -0.084272 0.000000
v 1.527310 -0.258964 -0.632633
v 1.527310 -0.119160 0.632633
v 0.000000 -0.084272 1.653149
v 0.632633 -0.258964 1.527310
v -0.632632 -0.119160 1.527311
v -1.653149 -0.084272 -0.000000
v -1.527310 -0.258964 0.632633
v -1.527310 -0.119160 -0.632633
v -0.632632 -0.258964 -1.527311
v 0.530898 -0.247715 -1.281702
v -0.000000 -0.248548 -1.387304
v 1.387304 -0.248548 0.000000
v 1.281702 -0.360939 -0.530898
v 1.281702 -0.247715 0.530898
v 0.000000 -0.248548 1.387304
v 0.530898 -0.360939 1.281702
v -0.530898 -0.247715 1.281702
v -1.387304 -0.248548 -0.000000
v -1.281702 -0.360939 0.530899
v -1.281702 -0.247715 -0.530899
v -0.530898 -0.360939 -1.281702
vn 0.1951 0.0000 -0.9808
vn 0.5556 0.0000 -0.8315
vn 0.8315 0.0000 -0.5556
vn 0.9808 0.0000 -0.1951
vn 0.9808 0.0000 0.1951
vn 0.8315 0.0000 0.5556
vn 0.5556 0.0000 0.8315
vn 0.1951 0.0000 0.9808
vn -0.1951 0.0000 0.9808
vn -0.5556 0.0000 0.8315
vn -0.8315 0.0000 0.5556
vn -0.9808 0.0000 0.1951
vn -0.9808 0.0000 -0.1951
vn -0.8315 0.0000 -0.5556
vn -0.5556 0.0000 -0.8315
vn -0.1951 0.0000 -0.9808
vn 0.3827 0.0000 0.9239
vn 0.0000 1.0000 0.0000
vn -0.3827 0.0000 -0.9239
vn -0.0710 0.8717 0.4850
vn -0.4771 0.8706 -0.1199
vn -0.4850 0.8717 -0.0710
vn 0.1199 0.8706 -0.4771
vn 0.0710 0.8717 -0.4850
vn 0.4771 0.8706 0.1199
vn 0.4850 0.8717 0.0710
vn -0.1199 0.8706 0.4771
vn -0.3827 0.0000 0.9239
vn 0.3827 0.0000 -0.9239
vn 0.9239 0.0000 -0.3827
vn -0.9239 0.0000 0.3827
vn 0.9239 0.0000 0.3827
vn -0.9239 0.0000 -0.3827
usemtl None
s off
f 1//1 34//1 33//1 3//1
f 3//2 33//2 35//2 5//2
f 5//3 35//3 36//3 7//3
f 7//4 36//4 37//4 9//4
f 9//5 37//5 38//5 11//5
f 11//6 38//6 39//6 13//6
f 13//7 39//7 40//7 15//7
f 15//8 40//8 41//8 17//8
f 17//9 41//9 42//9 19//9
f 19//10 42//10 43//10 21//10
f 21//11 43//11 44//11 23//11
f 23//12 44//12 45//12 25//12
f 25//13 45//13 46//13 27//13
f 27//14 46//14 47//14 29//14
f 10//12 8//12 52//12 53//12
f 29//15 47//15 48//15 31//15
f 31//16 48//16 34//16 1//16
f 44//17 24//17 86//17 74//17
f 4//18 6//18 35//18 33//18
f 6//18 8//18 36//18 35//18
f 41//8 40//8 71//8 70//8
f 26//5 28//5 87//5 85//5
f 12//18 14//18 39//18 38//18
f 14//18 16//18 40//18 39//18
f 36//19 8//19 80//19 68//19
f 10//13 12//13 81//13 79//13
f 20//18 22//18 43//18 42//18
f 22//18 24//18 44//18 43//18
f 24//4 26//4 85//4 86//4
f 8//12 10//12 79//12 80//12
f 28//18 30//18 47//18 46//18
f 30//18 32//18 48//18 47//18
f 38//5 37//5 67//5 69//5
f 26//4 24//4 60//4 61//4
f 12//13 10//13 53//13 54//13
f 28//5 26//5 61//5 62//5
f 14//14 12//14 54//14 55//14
f 30//6 28//6 62//6 63//6
f 16//15 14//15 55//15 56//15
f 32//7 30//7 63//7 64//7
f 18//16 16//16 56//16 57//16
f 4//9 2//9 50//9 49//9
f 2//8 32//8 64//8 50//8
f 20//1 18//1 57//1 58//1
f 6//10 4//10 49//10 51//10
f 22//2 20//2 58//2 59//2
f 8//11 6//11 51//11 52//11
f 24//3 22//3 59//3 60//3
f 78//20 77//20 65//20 66//20
f 80//21 79//21 67//21 68//21
f 79//22 81//22 69//22 67//22
f 83//23 82//23 70//23 71//23
f 82//24 84//24 72//24 70//24
f 86//25 85//25 73//25 74//25
f 85//26 87//26 75//26 73//26
f 88//27 78//27 66//27 76//27
f 33//1 34//1 66//1 65//1
f 46//13 45//13 73//13 75//13
f 12//28 38//28 69//28 81//28
f 34//16 48//16 76//16 66//16
f 28//29 46//29 75//29 87//29
f 16//16 18//16 82//16 83//16
f 37//4 36//4 68//4 67//4
f 2//9 4//9 77//9 78//9
f 32//8 2//8 78//8 88//8
f 42//9 41//9 70//9 72//9
f 18//1 20//1 84//1 82//1
f 40//30 16//30 83//30 71//30
f 48//31 32//31 88//31 76//31
f 45//12 44//12 74//12 73//12
f 4//32 33//32 65//32 77//32
f 20//33 42//33 72//33 84//33
