# Blender v2.79 (sub 0) OBJ File: 'robot.blend'
# www.blender.org
mtllib robot.mtl
o Cube
v 0.716706 1.476840 -0.716706
v 0.716706 1.476840 0.716706
v 0.716706 2.897016 -0.716706
v 0.716706 2.897016 0.716707
v 1.005380 1.393021 -0.003562
v 0.716706 2.193546 -0.716706
v 0.716706 2.193546 0.716706
v 1.005380 3.357559 -0.003561
v 0.364345 0.405655 -0.003562
v 0.684863 0.899338 -0.003562
v 1.005380 2.417418 -0.003562
v 0.363894 3.444378 -0.000483
v 0.275245 3.444378 0.372400
v 0.272231 3.444378 -0.263362
v 0.560924 4.064816 -0.002401
v 0.309837 4.051518 0.372400
v 0.420471 4.064816 -0.405208
v 0.297575 4.340566 0.000162
v 0.224809 4.340566 0.260193
v 0.222335 4.340566 -0.215618
v 1.346249 2.859329 -0.378891
v 1.351091 2.859330 0.340593
v 1.756535 2.956801 0.000548
v 1.167034 2.414821 -0.003562
v 1.679832 1.832108 -0.722543
v 1.674946 1.903894 0.709062
v 2.041615 1.464931 0.011147
v 1.137207 1.721169 -0.004789
v 1.558766 1.172437 -0.007122
v -0.716706 1.476840 -0.716706
v -0.716706 1.476840 0.716706
v -0.716706 2.897016 -0.716706
v -0.716706 2.897016 0.716707
v -1.005380 1.393021 -0.003562
v 0.000000 1.401176 -0.934906
v -0.716706 2.193546 -0.716706
v 0.000000 1.401176 0.934906
v -0.716706 2.193546 0.716706
v -1.005380 3.357559 -0.003561
v 0.000000 3.138628 -0.934906
v 0.000000 3.138628 0.934906
v -0.364345 0.405655 -0.003562
v 0.000000 0.500067 -0.349872
v 0.000000 0.500067 0.349872
v 0.000000 0.950621 0.642389
v -0.684863 0.899338 -0.003562
v 0.000000 2.336082 -0.934906
v 0.000000 2.336082 0.934906
v -1.005380 2.417418 -0.003562
v 0.000000 0.950621 -0.642389
v -0.363894 3.444378 -0.000483
v 0.000000 3.444378 -0.352259
v 0.000000 3.444378 0.372400
v -0.275245 3.444378 0.372400
v -0.272231 3.444378 -0.263362
v -0.560924 4.064816 -0.002401
v 0.000000 4.064816 -0.541424
v 0.000000 4.050040 0.372400
v -0.309837 4.051518 0.372400
v -0.420471 4.064816 -0.405208
v -0.297575 4.340566 0.000162
v 0.000000 4.340566 -0.288588
v 0.000000 4.340566 0.260193
v -0.224809 4.340566 0.260193
v -0.222335 4.340566 -0.215618
v 0.000000 0.004465 0.005105
v -1.346249 2.859329 -0.378891
v -1.351091 2.859330 0.340593
v -1.756535 2.956801 0.000548
v -1.167034 2.414821 -0.003562
v -1.679832 1.832108 -0.722543
v -1.674946 1.903894 0.709062
v -2.041615 1.464931 0.011147
v -1.137207 1.721169 -0.004789
v -1.558766 1.172437 -0.007122
vn 0.9282 0.0000 0.3720
vn 0.5440 -0.4792 0.6888
vn 0.5266 -0.6196 -0.5820
vn 0.5965 -0.4153 0.6868
vn 0.2912 0.0000 -0.9566
vn 0.9269 -0.0000 -0.3752
vn 0.2912 -0.0000 0.9566
vn 0.3105 0.7631 0.5668
vn 0.3354 0.8212 0.4617
vn 0.2732 0.8245 -0.4955
vn 0.3492 0.7913 -0.5018
vn 0.8985 -0.1689 0.4052
vn 0.2968 -0.2791 -0.9133
vn 0.9042 -0.2881 -0.3153
vn -0.0010 0.3610 0.9326
vn 0.7002 0.6709 -0.2441
vn 0.0000 0.0000 1.0000
vn 0.2330 0.6581 -0.7160
vn 0.7469 0.5369 0.3923
vn 0.0000 1.0000 0.0000
vn 0.5285 -0.6210 0.5788
vn 0.5915 -0.4150 -0.6913
vn 0.5281 -0.4945 -0.6904
vn 0.3733 0.7075 -0.6001
vn 0.2692 -0.7140 0.6463
vn 0.2372 -0.7287 -0.6425
vn 0.3832 0.6900 0.6140
vn -0.8206 -0.0191 0.5712
vn 0.8120 0.2813 0.5115
vn -0.8262 -0.0331 -0.5624
vn 0.8208 0.2683 -0.5043
vn -0.6324 -0.4884 0.6014
vn 0.3858 -0.6760 0.6279
vn 0.4426 -0.6953 -0.5662
vn -0.6525 -0.4989 -0.5704
vn -0.9282 0.0000 0.3720
vn -0.5440 -0.4792 0.6888
vn -0.5266 -0.6196 -0.5820
vn -0.5965 -0.4153 0.6868
vn -0.2912 0.0000 -0.9566
vn -0.9269 -0.0000 -0.3752
vn -0.2912 -0.0000 0.9566
vn -0.3105 0.7631 0.5668
vn -0.3354 0.8212 0.4617
vn -0.2732 0.8245 -0.4955
vn -0.3492 0.7913 -0.5018
vn -0.8985 -0.1689 0.4052
vn -0.2968 -0.2791 -0.9133
vn -0.9042 -0.2881 -0.3153
vn 0.0010 0.3610 0.9326
vn -0.7002 0.6709 -0.2441
vn -0.2330 0.6581 -0.7160
vn -0.7469 0.5369 0.3923
vn -0.5285 -0.6210 0.5788
vn -0.5915 -0.4150 -0.6913
vn -0.5281 -0.4945 -0.6904
vn -0.3733 0.7075 -0.6001
vn -0.2692 -0.7140 0.6463
vn -0.2372 -0.7287 -0.6425
vn -0.3832 0.6900 0.6140
vn 0.8206 -0.0191 0.5712
vn -0.8120 0.2813 0.5115
vn 0.8262 -0.0331 -0.5624
vn -0.8208 0.2683 -0.5043
vn 0.6324 -0.4884 0.6014
vn -0.3858 -0.6760 0.6279
vn -0.4426 -0.6953 -0.5662
vn 0.6525 -0.4989 -0.5704
usemtl Material
s off
f 7//1 11//1 4//1
f 9//2 44//2 66//2
f 1//3 5//3 10//3 50//3 35//3
f 44//4 9//4 10//4 45//4
f 3//5 6//5 47//5 40//5
f 6//5 1//5 35//5 47//5
f 3//6 11//6 6//6
f 2//7 7//7 48//7 37//7
f 7//7 4//7 41//7 48//7
f 5//1 11//1 7//1 2//1
f 1//6 6//6 11//6 5//6
f 13//8 53//8 41//8 4//8
f 13//9 4//9 8//9 12//9
f 14//10 12//10 8//10 3//10
f 52//11 14//11 3//11 40//11
f 13//12 12//12 15//12 16//12
f 14//13 52//13 57//13 17//13
f 12//14 14//14 17//14 15//14
f 16//15 19//15 63//15 58//15
f 15//16 17//16 20//16 18//16
f 16//17 58//17 53//17 13//17
f 17//18 57//18 62//18 20//18
f 16//19 15//19 18//19 19//19
f 63//20 19//20 18//20 20//20 62//20
f 5//21 2//21 37//21 45//21 10//21
f 50//22 10//22 9//22 43//22
f 66//23 43//23 9//23
f 3//24 8//24 23//24 21//24
f 4//25 11//25 24//25 22//25
f 11//26 3//26 21//26 24//26
f 8//27 4//27 22//27 23//27
f 22//28 24//28 28//28 26//28
f 23//29 22//29 26//29 27//29
f 24//30 21//30 25//30 28//30
f 21//31 23//31 27//31 25//31
f 28//32 29//32 26//32
f 26//33 29//33 27//33
f 27//34 29//34 25//34
f 28//35 25//35 29//35
f 38//36 33//36 49//36
f 42//37 66//37 44//37
f 30//38 35//38 50//38 46//38 34//38
f 44//39 45//39 46//39 42//39
f 32//40 40//40 47//40 36//40
f 36//40 47//40 35//40 30//40
f 32//41 36//41 49//41
f 31//42 37//42 48//42 38//42
f 38//42 48//42 41//42 33//42
f 34//36 31//36 38//36 49//36
f 30//41 34//41 49//41 36//41
f 54//43 33//43 41//43 53//43
f 54//44 51//44 39//44 33//44
f 55//45 32//45 39//45 51//45
f 52//46 40//46 32//46 55//46
f 54//47 59//47 56//47 51//47
f 55//48 60//48 57//48 52//48
f 51//49 56//49 60//49 55//49
f 59//50 58//50 63//50 64//50
f 56//51 61//51 65//51 60//51
f 59//17 54//17 53//17 58//17
f 60//52 65//52 62//52 57//52
f 59//53 64//53 61//53 56//53
f 63//20 62//20 65//20 61//20 64//20
f 34//54 46//54 45//54 37//54 31//54
f 50//55 43//55 42//55 46//55
f 66//56 42//56 43//56
f 32//57 67//57 69//57 39//57
f 33//58 68//58 70//58 49//58
f 49//59 70//59 67//59 32//59
f 39//60 69//60 68//60 33//60
f 68//61 72//61 74//61 70//61
f 69//62 73//62 72//62 68//62
f 70//63 74//63 71//63 67//63
f 67//64 71//64 73//64 69//64
f 74//65 72//65 75//65
f 72//66 73//66 75//66
f 73//67 71//67 75//67
f 74//68 75//68 71//68
